<svg xmlns="http://www.w3.org/2000/svg" viewBox="0 0 1000 1000">
  <defs>
    <linearGradient id="ag-grad" x1="0" y1="0" x2="0" y2="1">
      <stop offset="0%" stop-color="#ffffff"/>
      <stop offset="100%" stop-color="#ffffff" stop-opacity="0.5"/>
    </linearGradient>
  </defs>
  <rect width="1000" height="1000" rx="225" ry="225" fill="#000000"/>
  <g fill="url(#ag-grad)" transform="translate(120.00,683.90) scale(0.256844,-0.256844)">
    <path d="M-47 0Q-47 0 -47.0 0.0Q-47 0 -47 0L485 1432Q485 1432 485.0 1432.0Q485 1432 485 1432H1011Q1011 1432 1011.0 1432.0Q1011 1432 1011 1432L1542 0Q1542 0 1542.0 0.0Q1542 0 1542 0H948Q948 0 948.0 0.0Q948 0 948 0L753 610L730.0952380952381 676H730L707 611L503 0Q503 0 503.0 0.0Q503 0 503 0ZM283 146 407 466H1069L1193 146Z"/>
    <g transform="translate(1454,0)">
      <path d="M775 -24Q452 -24 232.5 187.0Q13 398 13 716Q13 1034 232.0 1245.0Q451 1456 777 1456Q897 1456 988.0 1435.5Q1079 1415 1153.5 1379.0Q1228 1343 1285.0 1290.0Q1342 1237 1342.0 1237.0Q1342 1237 1342 1237L1008 831Q1008 831 1008.0 831.0Q1008 831 973.5 860.5Q939 890 910.5 905.0Q882 920 850.0 927.0Q818 934 784 934Q688 934 621.5 872.7865748709122Q555 811.5731497418244 555 692.5Q555 597 620.0 533.5Q685 470 790 470Q878 470 920.5 493.0Q963 516 980 555V515H747Q747 515 747.0 515.0Q747 515 747 515V874Q747 874 747.0 874.0Q747 874 747 874H1499Q1499 874 1499.0 874.0Q1499 874 1499 874V716Q1499 354 1289.0 165.0Q1079 -24 775 -24Z"/>
    </g>
  </g>
</svg>
